<?xml version="1.0" encoding="UTF-8" standalone="no"?>
<svg
   height="96"
   width="96"
   version="1.1"
   id="svg4"
   sodipodi:docname="icons8-sql.svg"
   inkscape:version="1.1.2 (1:1.1+202202050950+0a00cf5339)"
   xmlns:inkscape="http://www.inkscape.org/namespaces/inkscape"
   xmlns:sodipodi="http://sodipodi.sourceforge.net/DTD/sodipodi-0.dtd"
   xmlns="http://www.w3.org/2000/svg"
   xmlns:svg="http://www.w3.org/2000/svg">
  <defs
     id="defs8" />
  <sodipodi:namedview
     id="namedview6"
     pagecolor="#ffffff"
     bordercolor="#666666"
     borderopacity="1.0"
     inkscape:pageshadow="2"
     inkscape:pageopacity="0.0"
     inkscape:pagecheckerboard="0"
     showgrid="false"
     width="100px"
     inkscape:zoom="4.2091918"
     inkscape:cx="-20.550263"
     inkscape:cy="14.373305"
     inkscape:window-width="1848"
     inkscape:window-height="1016"
     inkscape:window-x="72"
     inkscape:window-y="27"
     inkscape:window-maximized="1"
     inkscape:current-layer="svg4" />
  <path
     d="M 42.59892,93.38667 C 34.091184,92.773428 25.682375,90.631944 20.525352,87.765034 17.587913,86.132143 15.349997,84.125307 14.471824,82.336734 L 13.949339,81.272548 V 47.892698 14.512807 l 0.413455,-0.839429 c 1.847613,-3.7511324 7.744189,-7.1328655 15.975465,-9.1619052 2.794134,-0.6888114 6.827868,-1.3747663 10.118633,-1.7206651 3.36027,-0.3532999 12.267011,-0.2995454 15.618932,0.094785 8.908752,1.0466558 16.489495,3.3899129 21.16122,6.5410465 1.801634,1.2151908 3.650337,3.1595728 4.276616,4.4979838 l 0.537001,1.147543 -0.04597,33.278874 -0.04597,33.279094 -0.431012,0.875654 c -0.237052,0.481583 -0.953117,1.42917 -1.591252,2.105516 -3.884622,4.117937 -12.217071,7.164158 -23.146529,8.462058 -2.227659,0.264617 -11.905412,0.478597 -14.190903,0.313827 z M 58.277346,64.784586 c -0.03272,-0.08531 -1.304549,-1.218319 -2.826283,-2.517921 -1.521734,-1.299601 -2.832346,-2.42398 -2.912472,-2.498625 -0.08011,-0.07466 0.201009,-0.338966 0.62476,-0.587366 0.42374,-0.248401 1.235616,-0.939406 1.804154,-1.535576 1.662626,-1.743413 2.447079,-3.896958 2.447079,-6.717865 0,-2.777059 -0.846076,-5.017741 -2.54063,-6.728148 -1.70785,-1.724041 -3.668735,-2.46479 -6.524374,-2.46479 -4.401732,0 -7.782309,2.568403 -8.861296,6.732434 -0.371165,1.432285 -0.369165,4.326476 0.004,5.596486 0.973048,3.312733 3.623162,5.718679 6.921379,6.283647 1.116122,0.191178 1.267322,0.27359 2.028262,1.105526 0.452227,0.494412 1.380232,1.481302 2.062239,2.193082 l 1.240004,1.294134 h 3.2964 c 1.813022,0 3.269628,-0.06972 3.236908,-0.155018 z M 46.972619,55.554799 c -0.793581,-0.413779 -1.093593,-0.734893 -1.546144,-1.654875 -0.349522,-0.710546 -0.409288,-1.114705 -0.413209,-2.794158 -0.004,-1.706513 0.05038,-2.075263 0.415325,-2.816272 0.597078,-1.212594 1.419887,-1.786624 2.692714,-1.878683 1.771745,-0.128544 2.794418,0.741009 3.33042,2.830685 0.657156,2.562053 -0.06544,5.285955 -1.642124,6.18994 -0.827185,0.474274 -2.061072,0.527924 -2.836982,0.123351 z m -14.611306,4.755708 c 3.45612,-0.655443 5.418043,-2.665396 5.418043,-5.550678 0,-2.559664 -1.266581,-4.05112 -4.767275,-5.613898 -2.003955,-0.894611 -2.72981,-1.456177 -2.72981,-2.112268 0,-0.543777 0.688838,-1.139622 1.490755,-1.28933 0.782973,-0.146202 2.859599,0.214499 4.085904,0.709846 l 1.027919,0.415234 v -2.275349 -2.27548 l -1.11564,-0.247479 c -0.6895,-0.152953 -2.138355,-0.244752 -3.793163,-0.240077 -2.34401,0 -2.80304,0.05714 -3.685147,0.407444 -2.576648,1.022894 -3.799343,2.765372 -3.77979,5.386492 0.01831,2.453752 1.312807,3.98438 4.53443,5.361328 1.900874,0.812447 2.662748,1.431091 2.662748,2.162154 0,1.553558 -2.588555,1.744751 -5.329193,0.393616 -0.750552,-0.370024 -1.424873,-0.702925 -1.498507,-0.739788 -0.07362,-0.03687 -0.133879,1.02605 -0.133879,2.362045 0,2.418164 0.0025,2.429823 0.44041,2.596501 1.64872,0.626851 5.292695,0.906128 7.172195,0.549687 z m 39.511935,-2.243228 v -2.052775 h -3.123789 -3.123776 v -7.05087 -7.050806 H 62.858895 60.09212 v 9.103607 9.103619 h 5.890564 5.890564 z M 52.595034,22.094536 c 5.498117,-0.381346 9.619469,-1.101319 13.246187,-2.313913 3.613034,-1.208049 5.747362,-2.669809 6.224791,-4.263229 0.183933,-0.614023 0.17069,-0.846958 -0.08635,-1.520189 C 70.826995,10.979029 64.387887,8.6601819 54.54848,7.7199965 50.339602,7.3177462 42.6852,7.4481075 38.672124,7.9901975 32.548726,8.8175502 27.579299,10.354359 25.369689,12.103979 c -4.469821,3.539491 0.256996,7.432412 11.249465,9.264741 4.766289,0.794503 10.941442,1.075091 15.975932,0.725816 z"
     fill="#00bcf2"
     id="path2"
     style="stroke-width:1.29842" />
</svg>
